<?xml version="1.0" encoding="UTF-8"?>
<svg width="32" height="32" viewBox="0 0 32 32" fill="none" xmlns="http://www.w3.org/2000/svg">
    <path d="M16 4C12.5 4 9.5 6.5 9.5 10C9.5 13.5 12 16 16 16C20 16 22.5 13.5 22.5 10C22.5 6.5 19.5 4 16 4ZM16 14C13.5 14 11.5 12 11.5 10C11.5 8 13.5 6 16 6C18.5 6 20.5 8 20.5 10C20.5 12 18.5 14 16 14Z" fill="#FF6B6B"/>
    <path d="M8 20C6.5 20 5 21.5 5 23C5 24.5 6.5 26 8 26C9.5 26 11 24.5 11 23C11 21.5 9.5 20 8 20ZM8 24C7 24 6 23 6 23C6 22 7 21 8 21C9 21 10 22 10 23C10 24 9 24 8 24Z" fill="#FF6B6B"/>
    <path d="M24 20C22.5 20 21 21.5 21 23C21 24.5 22.5 26 24 26C25.5 26 27 24.5 27 23C27 21.5 25.5 20 24 20ZM24 24C23 24 22 23 22 23C22 22 23 21 24 21C25 21 26 22 26 23C26 24 25 24 24 24Z" fill="#FF6B6B"/>
    <path d="M16 18C14.5 18 13 19.5 13 21C13 22.5 14.5 24 16 24C17.5 24 19 22.5 19 21C19 19.5 17.5 18 16 18ZM16 22C15 22 14 21 14 21C14 20 15 19 16 19C17 19 18 20 18 21C18 22 17 22 16 22Z" fill="#FF6B6B"/>
</svg> 